<?xml version="1.0" standalone="no"?>
<!DOCTYPE svg PUBLIC "-//W3C//DTD SVG 20010904//EN"
 "http://www.w3.org/TR/2001/REC-SVG-20010904/DTD/svg10.dtd">
<svg version="1.0" xmlns="http://www.w3.org/2000/svg"
 width="1280.000000pt" height="942.000000pt" viewBox="0 0 1280.000000 942.000000"
 preserveAspectRatio="xMidYMid meet">
<metadata>
Created by potrace 1.15, written by Peter Selinger 2001-2017
</metadata>
<g transform="translate(0.000000,942.000000) scale(0.100000,-0.100000)"
fill="#1976d2" stroke="none">
<path d="M3225 9400 c-33 -10 -79 -23 -103 -30 -37 -9 -66 -35 -192 -163
l-148 -152 -43 48 c-102 117 -261 144 -418 71 -31 -14 -80 -32 -109 -40 -159
-42 -262 -140 -262 -249 0 -57 53 -158 108 -206 86 -76 244 -122 573 -169 202
-28 228 -34 264 -59 171 -119 334 -124 442 -12 109 112 175 346 177 626 1 163
-15 233 -67 291 -57 66 -116 78 -222 44z m151 -62 c60 -28 91 -170 78 -358
l-8 -115 -7 71 c-15 135 -79 301 -145 374 l-35 39 33 3 c37 4 53 1 84 -14z
m-128 -72 c71 -77 115 -185 133 -326 26 -199 -41 -354 -180 -419 -48 -22 -68
-26 -146 -24 -58 1 -116 9 -165 23 -41 12 -120 26 -174 31 -241 23 -556 121
-655 205 -36 30 -41 74 -14 132 22 48 177 202 228 227 32 15 63 19 150 19 126
1 211 -22 284 -76 37 -27 41 -34 36 -59 -5 -21 -2 -30 12 -37 10 -5 23 -7 30
-5 7 3 15 -8 19 -24 10 -46 12 -50 14 -18 1 29 1 29 16 10 17 -21 16 -16 -5
27 -13 26 -11 29 75 122 110 119 250 235 285 236 9 0 35 -20 57 -44z m-618
-105 c45 -23 120 -88 120 -104 0 -4 -16 4 -35 19 -58 44 -159 75 -265 82 -95
6 -95 6 -55 19 61 19 180 11 235 -16z m-518 -140 c-40 -40 -80 -91 -93 -120
-26 -54 -39 -64 -39 -28 0 48 22 96 60 133 35 34 112 82 134 84 4 0 -23 -31
-62 -69z m1243 -471 c-43 -82 -126 -140 -204 -140 -44 0 -129 18 -135 29 -2 3
32 7 77 8 70 2 90 6 153 38 42 20 82 48 94 65 27 38 35 38 15 0z"/>
<path d="M5355 9046 c-141 -35 -216 -114 -251 -263 -22 -92 -14 -376 16 -563
61 -393 83 -573 87 -736 6 -197 -4 -265 -62 -406 -19 -46 -35 -100 -35 -121 0
-36 2 -38 27 -35 35 4 67 55 131 209 85 204 287 471 593 785 103 105 198 211
213 236 32 55 41 116 28 189 -10 51 -8 64 16 130 23 63 27 90 27 184 0 97 -3
116 -25 158 -64 125 -225 207 -470 237 -109 13 -232 12 -295 -4z m266 -76 c87
-16 243 -62 251 -74 13 -19 124 -348 143 -422 l18 -71 -33 -59 c-103 -181
-240 -353 -469 -588 l-177 -181 -44 -133 c-39 -116 -45 -128 -48 -95 -11 156
-35 383 -56 518 -46 290 -59 434 -60 630 -1 157 2 200 17 250 36 117 102 190
199 220 52 16 185 19 259 5z m386 -103 c81 -75 107 -166 83 -291 -14 -74 -25
-89 -35 -49 -3 15 -33 102 -65 193 -80 225 -77 214 -50 200 13 -7 43 -31 67
-53z m17 -685 c-15 -26 -104 -123 -198 -217 -94 -93 -155 -151 -136 -129 19
23 69 82 111 130 84 98 157 198 210 287 l34 58 3 -41 c2 -31 -4 -53 -24 -88z
m-464 -504 c-39 -45 -92 -110 -117 -145 -26 -34 -48 -61 -50 -59 -2 1 2 18 8
37 7 21 52 75 118 142 58 59 107 107 108 107 2 0 -28 -37 -67 -82z m-335 -458
c-20 -39 -26 -38 -14 3 5 17 12 70 17 117 l7 85 3 -87 c2 -64 -1 -96 -13 -118z"/>
<path d="M5382 8621 c-79 -27 -122 -76 -122 -139 0 -17 -10 -38 -25 -52 -29
-27 -25 -42 4 -16 18 16 19 15 33 -26 13 -41 12 -46 -14 -97 -34 -64 -35 -82
-7 -107 17 -15 38 -19 108 -20 47 -1 104 -7 126 -14 84 -27 159 18 186 111 9
28 32 59 75 101 104 99 117 149 55 209 -32 29 -55 40 -110 53 -95 22 -241 20
-309 -3z m247 -72 c6 -18 11 -71 11 -119 0 -101 2 -98 -114 -161 l-79 -43 -35
40 c-18 21 -43 56 -53 77 l-20 38 29 37 c45 58 47 71 3 23 l-39 -44 -8 37 c-8
45 2 58 90 110 54 32 67 36 132 36 72 0 72 0 83 -31z m127 -14 c35 -23 31 -63
-12 -113 -19 -23 -39 -42 -43 -42 -5 0 -11 32 -15 72 -3 39 -9 82 -12 94 -6
22 -4 23 26 14 18 -5 43 -16 56 -25z m-446 -235 c0 -5 16 -27 35 -49 19 -21
35 -41 35 -45 0 -4 -24 -6 -52 -4 -47 3 -53 6 -56 26 -4 27 16 82 29 82 5 0 9
-4 9 -10z m291 -69 c-16 -29 -48 -44 -78 -36 -23 5 -21 8 29 33 29 15 54 27
56 26 2 -1 -1 -12 -7 -23z"/>
<path d="M7980 8295 c-8 -2 -49 -9 -90 -15 -209 -34 -491 -159 -745 -331 -199
-136 -263 -200 -234 -235 29 -36 117 1 324 136 110 72 140 86 360 165 275 99
387 130 535 150 164 23 197 20 412 -35 362 -92 559 -123 608 -98 39 21 36 44
-7 71 -51 32 -137 62 -258 91 l-100 24 60 7 c80 9 109 19 113 37 4 23 -20 26
-168 17 -357 -21 -502 -22 -569 -5 -60 16 -209 29 -241 21z m-17 -92 c-7 -2
-19 -2 -25 0 -7 3 -2 5 12 5 14 0 19 -2 13 -5z m-50 -10 c-7 -2 -19 -2 -25 0
-7 3 -2 5 12 5 14 0 19 -2 13 -5z m807 -8 c119 -19 265 -59 333 -90 44 -20 48
-23 25 -24 -53 -2 -548 108 -567 125 -11 10 123 2 209 -11z m-975 -85 c-54
-25 -300 -118 -303 -115 -2 1 25 20 60 41 38 24 97 48 148 61 90 23 129 28 95
13z m-484 -159 c-31 -23 -90 -57 -76 -44 13 14 88 63 95 63 3 0 -6 -9 -19 -19z"/>
<path d="M7875 7895 c-127 -24 -242 -90 -304 -178 -17 -23 -58 -62 -90 -85
-88 -64 -118 -99 -104 -120 18 -27 50 -18 213 62 183 89 376 156 453 156 143
0 333 -47 667 -166 83 -30 120 -38 178 -38 69 -1 75 1 98 28 19 21 24 38 22
64 l-3 36 -280 93 c-468 154 -649 186 -850 148z m370 -46 c117 -23 157 -35
450 -139 121 -43 230 -81 243 -85 47 -14 18 -55 -39 -55 -35 0 -38 2 -36 28 2
23 -5 30 -43 50 -25 12 -102 35 -170 51 -69 16 -163 43 -210 60 -112 40 -235
55 -342 41 -46 -5 -110 -10 -144 -10 -108 0 -313 -52 -361 -92 -7 -6 -16 -9
-18 -6 -11 10 95 98 151 126 128 64 299 74 519 31z"/>
<path d="M11220 7501 c-91 -28 -180 -98 -296 -232 -74 -86 -98 -106 -149 -129
-58 -26 -61 -27 -85 -10 -14 9 -40 22 -59 28 -82 28 -184 -45 -249 -177 -20
-42 -44 -83 -53 -91 -10 -8 -24 -26 -33 -41 -14 -23 -14 -27 1 -49 11 -16 16
-40 14 -81 -2 -50 15 -147 24 -138 1 2 -1 27 -5 54 -4 28 -6 72 -3 98 l6 49
38 -115 c20 -63 47 -132 59 -153 23 -43 21 -36 -21 79 -16 43 -34 99 -39 125
-6 26 -16 57 -22 70 -10 18 -9 32 3 65 17 50 56 78 236 169 116 59 123 61 141
45 10 -9 23 -17 29 -17 5 0 57 48 114 106 249 253 398 316 559 234 53 -27 76
-60 105 -152 22 -69 44 -212 45 -285 0 -14 -24 -49 -59 -87 -32 -36 -61 -74
-64 -86 -7 -27 19 -52 47 -45 46 14 71 42 93 106 17 51 30 70 64 97 l43 33 31
-63 c18 -38 41 -69 56 -77 24 -13 31 -12 80 12 30 15 103 65 162 111 115 91
188 126 261 126 79 0 97 -13 153 -108 132 -223 199 -396 234 -603 17 -101 20
-152 17 -272 -5 -139 -6 -149 -29 -173 -31 -34 -66 -51 -109 -56 -33 -3 -35
-1 -38 27 -1 17 -7 47 -12 68 -11 37 -11 37 -63 37 -147 0 -173 -106 -42 -166
l54 -25 -16 -52 c-19 -65 -58 -139 -89 -168 l-24 -23 -43 30 c-23 17 -64 60
-92 97 -36 47 -56 66 -70 64 -19 -2 -20 -10 -20 -112 -1 -126 -14 -168 -72
-227 -97 -99 -276 -112 -436 -32 -109 55 -150 104 -171 207 -13 57 -55 29
-106 -72 -16 -32 -25 -40 -33 -32 -18 18 -45 13 -61 -11 -7 -13 -21 -66 -30
-118 -11 -63 -26 -108 -43 -135 -30 -47 -63 -85 -74 -85 -18 0 -31 46 -37 127
-6 67 -11 88 -25 97 -23 14 -33 -1 -41 -65 -4 -29 -19 -66 -39 -96 -41 -61
-56 -61 -196 -2 l-104 43 64 20 c71 23 86 47 50 80 -37 34 -151 67 -246 73
-49 2 -99 9 -111 15 -16 7 -47 1 -135 -26 -63 -19 -139 -40 -170 -47 -53 -11
-59 -10 -110 16 -68 33 -86 50 -111 99 -40 79 -7 188 103 336 32 44 59 85 59
90 0 6 -27 10 -61 10 -53 0 -60 2 -49 15 6 8 9 19 5 25 -11 18 -45 11 -90 -20
-42 -29 -44 -30 -117 -20 -127 16 -193 45 -250 108 -49 54 -61 98 -56 196 5
97 43 190 121 304 97 141 268 273 390 303 41 10 57 9 105 -6 105 -33 147 -55
185 -98 l38 -42 -17 35 c-26 51 -97 107 -158 125 -79 23 -286 24 -357 2 -201
-61 -343 -272 -369 -547 -21 -219 40 -387 164 -453 33 -17 58 -22 123 -22 l82
0 -20 -30 c-34 -51 -67 -127 -85 -194 -32 -127 6 -219 116 -277 29 -16 59 -19
185 -20 90 0 188 -7 245 -17 52 -9 106 -18 119 -19 19 -2 27 -12 37 -49 15
-51 69 -111 126 -140 107 -55 273 -62 385 -17 52 21 71 24 151 20 125 -6 167
14 227 109 24 37 55 90 69 118 14 27 30 52 35 55 5 3 23 -16 39 -43 62 -100
137 -134 297 -135 212 0 453 95 640 254 54 46 78 60 114 65 144 21 250 130
311 323 17 51 39 111 50 133 115 224 -50 856 -290 1113 -166 177 -161 173
-215 182 -103 15 -277 -43 -453 -153 -40 -25 -75 -44 -76 -42 -2 2 -25 46 -51
98 -72 139 -214 308 -290 342 -41 19 -120 23 -165 10z m146 -39 c7 -4 -22 -7
-65 -7 -56 -1 -88 -6 -123 -22 -27 -12 -48 -20 -48 -17 0 3 24 16 53 29 52 25
157 34 183 17z m276 -337 c49 -102 51 -106 32 -120 -49 -39 -54 -38 -54 2 -1
41 -24 177 -35 206 -4 9 -4 17 -1 17 4 0 30 -47 58 -105z m663 45 c14 -13 25
-26 25 -29 0 -3 -20 -7 -45 -8 -68 -2 -154 -48 -305 -162 -152 -114 -173 -121
-202 -61 -10 20 -20 49 -23 65 -6 29 -2 32 82 81 120 70 159 89 245 119 95 33
184 31 223 -5z m-1646 -49 l33 -18 -103 -53 c-57 -29 -128 -68 -156 -86 -29
-19 -53 -31 -53 -28 0 16 46 91 78 126 70 78 131 96 201 59z m126 -21 c-18
-20 -45 -27 -45 -12 0 9 37 30 54 31 5 1 1 -8 -9 -19z m-456 -262 c-5 -18 -9
-35 -9 -37 0 -3 -5 0 -11 6 -9 9 -8 18 5 37 22 35 27 33 15 -6z m1231 3 c0 -6
-12 -23 -26 -38 -28 -30 -28 -29 10 35 9 14 16 16 16 3z m-1714 -26 c-213 -87
-414 -329 -462 -554 l-14 -66 5 70 c22 325 225 572 470 574 l60 1 -59 -25z
m249 1 c19 -8 35 -17 35 -20 0 -5 -71 22 -79 30 -9 8 11 4 44 -10z m-675 -793
c40 -71 140 -128 261 -148 35 -6 40 -9 24 -16 -11 -4 -45 -8 -75 -8 -98 -1
-161 43 -216 150 -13 27 -24 51 -24 54 0 13 10 2 30 -32z m3034 -105 c12 -46
8 -49 -34 -28 -43 22 -50 36 -22 43 37 10 50 6 56 -15z m-2505 -67 c-138 -190
-166 -265 -138 -365 11 -41 79 -121 110 -131 10 -4 19 -11 19 -17 0 -20 -146
-2 -198 24 -72 36 -87 64 -87 161 0 76 3 88 42 167 23 47 61 107 85 133 l44
47 68 0 c65 0 68 -1 55 -19z m2680 -83 c-36 -72 -98 -148 -147 -179 -64 -41
-78 -37 -43 11 28 39 64 121 75 172 5 22 13 28 44 33 20 4 48 10 62 14 33 11
35 1 9 -51z m-395 -213 c28 -25 48 -46 45 -48 -2 -2 -24 -19 -49 -39 -25 -19
-64 -47 -87 -61 l-41 -26 30 59 c17 33 33 81 36 110 2 27 7 50 11 50 3 -1 28
-21 55 -45z m-740 -185 c66 -49 166 -88 253 -98 l68 -8 -59 -13 c-35 -8 -97
-12 -150 -9 -115 5 -154 27 -216 123 l-43 66 17 36 17 35 31 -47 c17 -25 54
-64 82 -85z m-1174 -14 c0 -46 -40 -58 -130 -39 -31 6 -29 7 41 28 93 28 89
28 89 11z m232 3 c29 -6 76 -18 103 -27 l50 -16 -40 -7 c-89 -17 -139 -11
-183 21 -23 17 -42 32 -42 35 0 8 56 6 112 -6z m-157 -57 c-33 -4 -39 1 -30
28 l7 22 25 -24 25 -23 -27 -3z m226 -110 c68 -32 140 -65 159 -74 l35 -15
-40 -12 c-59 -16 -196 -14 -252 5 -68 22 -121 62 -144 105 -10 21 -19 41 -19
44 0 3 31 5 69 5 62 0 79 -5 192 -58z m388 -54 c1 -5 -10 -8 -24 -8 -25 0 -25
0 -8 26 15 24 17 25 24 8 4 -11 8 -22 8 -26z"/>
<path d="M8158 7474 c-3 -3 -79 -10 -169 -15 -90 -6 -171 -15 -181 -20 -36
-19 -20 -36 43 -43 l60 -7 -52 -27 c-58 -29 -76 -50 -66 -76 10 -26 90 -20
233 20 146 40 135 40 469 5 272 -30 355 -27 355 9 0 23 -37 38 -134 55 -43 7
-78 15 -79 16 -19 36 -30 46 -65 56 -72 21 -399 43 -414 27z m397 -113 c34 -7
35 -9 10 -9 -16 0 -43 4 -60 8 -42 11 -1 11 50 1z"/>
<path d="M3516 7369 c-137 -47 -397 -250 -544 -424 -226 -268 -332 -537 -332
-843 0 -216 64 -437 183 -632 172 -281 431 -495 717 -591 78 -26 116 -33 211
-37 137 -6 193 5 299 56 133 65 280 235 345 399 18 46 14 93 -9 93 -8 0 -38
-26 -67 -58 -146 -157 -317 -246 -542 -282 -107 -18 -300 -8 -397 20 -303 86
-491 326 -556 707 -23 132 -15 405 16 547 57 265 158 464 320 627 133 134 266
210 439 249 77 18 230 8 314 -20 64 -22 74 -29 148 -114 247 -281 436 -667
469 -952 7 -66 5 -87 -10 -131 -50 -143 -191 -262 -297 -250 -23 2 -72 19
-109 36 l-67 31 24 27 24 27 -32 -22 c-38 -27 -55 -28 -76 -4 -15 16 -14 21 9
68 37 75 41 143 14 245 -12 46 -26 106 -31 133 -36 208 -186 375 -392 438 -53
16 -87 19 -146 16 -150 -9 -260 -89 -331 -241 -58 -125 -72 -203 -78 -423 -5
-220 3 -261 67 -359 65 -99 154 -133 263 -101 44 12 62 13 88 5 39 -14 106 -6
162 21 24 11 88 31 143 45 55 14 132 40 171 59 l72 34 6 -43 c4 -24 13 -48 20
-54 21 -18 157 -34 230 -27 182 17 281 120 306 316 31 242 23 352 -35 526 -93
280 -279 550 -460 667 -38 25 -101 70 -139 100 -80 65 -169 110 -244 126 -73
15 -98 14 -166 -10z m272 -79 c45 -24 80 -45 79 -46 -2 -2 -34 1 -72 7 -216
31 -472 -70 -668 -264 -187 -185 -299 -416 -354 -734 -19 -111 -22 -405 -5
-486 16 -81 -5 -39 -32 63 -115 425 10 829 367 1183 95 94 256 222 345 274 74
44 112 54 188 50 60 -3 82 -10 152 -47z m521 -451 c111 -164 184 -330 222
-499 26 -119 22 -154 -6 -45 -51 201 -182 464 -336 678 l-60 82 59 -61 c32
-34 87 -103 121 -155z m-873 -170 c-32 -5 -84 -20 -115 -34 -35 -15 -47 -18
-32 -7 39 28 113 51 161 50 44 0 44 -1 -14 -9z m107 -119 c-2 -60 3 -57 15 9
l7 42 63 -32 c74 -37 167 -120 229 -203 l44 -60 -7 -80 c-7 -85 -33 -155 -79
-212 l-24 -29 26 65 c67 168 26 318 -106 384 -72 36 -114 47 -233 60 l-111 11
29 34 c39 46 83 72 119 69 30 -3 30 -4 28 -58z m-213 15 c-7 -9 -15 -13 -18
-10 -3 2 1 11 8 20 7 9 15 13 18 10 3 -2 -1 -11 -8 -20z m-54 -64 c-4 -6 -17
-11 -28 -11 -21 0 -21 1 -3 20 19 21 44 13 31 -9z m-6 -57 c-6 -14 -18 -58
-28 -97 -25 -104 -22 -364 5 -464 11 -40 16 -73 11 -73 -23 0 -86 55 -102 88
l-18 37 23 -20 c20 -18 20 -16 -4 20 -26 38 -27 46 -27 167 l0 127 43 83 c37
74 93 158 103 158 2 0 -1 -12 -6 -26z m342 -4 c203 -63 256 -217 149 -435 -44
-90 -82 -134 -162 -187 l-54 -36 -7 31 c-4 18 -24 106 -44 197 -28 132 -95
359 -131 449 -8 21 164 8 249 -19z m-391 -9 c-12 -16 -33 -49 -47 -73 -31 -52
-22 -14 12 55 14 26 31 47 40 47 13 0 12 -5 -5 -29z m163 -179 c24 -75 65
-215 89 -310 38 -143 43 -174 31 -179 -17 -6 -136 5 -150 15 -35 25 -64 172
-64 325 0 124 25 301 41 292 4 -3 28 -67 53 -143z m601 -252 c-7 -42 -30 -100
-41 -100 -2 0 -9 11 -14 25 -7 19 -4 36 15 77 14 29 25 62 26 73 0 17 2 16 10
-5 6 -14 7 -45 4 -70z m-154 -88 c-62 -91 -124 -149 -166 -154 -19 -2 -35 -2
-35 2 0 3 20 17 44 33 24 15 77 62 117 105 41 43 76 77 77 76 2 -1 -14 -29
-37 -62z m92 -14 c7 -25 -21 -61 -65 -84 -41 -21 -41 -18 2 39 22 28 40 55 40
60 0 17 18 5 23 -15z m-775 -97 c15 -18 49 -49 77 -68 50 -35 50 -35 15 -28
-92 19 -132 65 -154 180 -5 27 -4 27 15 -10 12 -22 33 -55 47 -74z m1369 74
c-6 -19 -24 -46 -41 -58 -53 -40 -62 -41 -30 -6 17 19 41 49 53 67 28 41 32
40 18 -3z m-543 -64 c18 -19 17 -20 -20 -36 -35 -15 -199 -65 -211 -65 -18 0
24 30 50 36 41 8 120 48 136 68 17 21 24 20 45 -3z m496 -31 c-54 -76 -140
-110 -276 -110 -122 0 -151 6 -158 35 -3 13 -9 31 -12 40 -6 13 4 11 47 -10
71 -36 157 -44 230 -20 69 23 142 59 158 79 24 29 33 17 11 -14z m-326 -48
c-6 -7 -69 19 -94 38 -19 16 -11 14 36 -7 34 -16 60 -30 58 -31z m-724 -8 c0
-2 -9 -4 -20 -4 -11 0 -20 4 -20 9 0 5 9 7 20 4 11 -3 20 -7 20 -9z m206 -19
c-32 -24 -84 -17 -59 8 3 4 22 7 42 7 34 -1 35 -2 17 -15z m-299 -67 c-26 -7
-49 -7 -70 0 -28 9 -24 10 38 10 66 0 68 -1 32 -10z m891 -510 c-84 -107 -158
-163 -267 -200 -129 -44 -342 -24 -491 46 -30 14 -46 24 -35 21 61 -15 205
-21 295 -14 174 15 334 66 461 148 35 22 66 41 67 41 2 0 -11 -19 -30 -42z"/>
<path d="M1041 7310 c-133 -182 -389 -348 -761 -494 -136 -53 -134 -59 6 -12
306 103 516 222 690 388 l82 79 -5 -58 c-6 -71 11 -344 33 -509 19 -150 64
-373 115 -576 21 -86 39 -160 39 -164 0 -4 -8 1 -19 10 -53 48 -124 23 -192
-67 -19 -26 -54 -57 -77 -68 -43 -22 -74 -63 -86 -113 -4 -16 -27 -54 -52 -84
-59 -72 -84 -122 -84 -167 0 -50 14 -71 63 -97 34 -18 59 -22 132 -23 138 0
193 21 280 109 39 39 82 77 97 85 28 14 34 27 62 122 22 77 20 102 -10 139
-48 57 -199 674 -240 980 -17 123 -24 385 -14 509 3 39 1 66 -5 68 -6 2 -30
-24 -54 -57z m134 -1387 c13 -4 5 -11 -31 -24 -57 -22 -65 -19 -28 10 29 23
34 24 59 14z m42 -69 c-3 -3 -12 -4 -19 -1 -8 3 -5 6 6 6 11 1 17 -2 13 -5z
m-26 -127 c9 -44 9 -64 0 -83 -9 -22 -14 -24 -26 -14 -9 7 -15 29 -15 52 0 21
-6 54 -14 73 -14 32 -13 34 7 37 31 6 35 -1 48 -65z m48 46 c0 -25 -1 -25 -8
-8 -5 11 -7 23 -4 28 8 14 13 7 12 -20z m-113 -74 l5 -44 -25 30 c-25 29 -33
64 -19 79 13 13 35 -22 39 -65z m-93 3 c3 -16 26 -50 51 -76 26 -26 46 -55 46
-66 0 -25 -33 -42 -65 -34 -20 5 -28 16 -36 51 -7 24 -14 42 -16 39 -2 -2 0
-21 6 -42 6 -21 9 -39 7 -41 -9 -9 -56 19 -56 34 0 31 42 173 50 168 4 -2 10
-18 13 -33z m-113 -54 c0 -18 -2 -20 -9 -8 -6 8 -7 18 -5 22 9 14 14 9 14 -14z
m-36 -81 c9 -23 16 -54 16 -67 0 -14 7 -38 15 -54 8 -15 15 -31 15 -34 0 -10
-95 9 -118 24 -21 14 -24 22 -19 54 4 35 53 119 68 120 4 0 14 -19 23 -43z
m141 -67 l20 -9 -20 0 c-11 0 -27 4 -35 9 -13 9 -13 10 0 9 8 0 24 -4 35 -9z"/>
<path d="M8340 7088 c-14 -5 -51 -12 -83 -14 -68 -4 -126 -28 -184 -75 -23
-19 -52 -41 -64 -49 -23 -17 -31 -70 -33 -225 -1 -68 3 -87 24 -124 35 -61 71
-86 125 -85 58 1 132 49 197 128 28 34 67 78 88 98 22 21 41 51 45 70 4 18 18
64 31 101 46 131 26 188 -69 186 -29 0 -63 -5 -77 -11z m114 -34 c18 -17 22
-79 6 -89 -5 -3 -10 3 -10 15 0 34 -18 59 -53 74 l-32 14 37 1 c21 1 43 -6 52
-15z m-91 -60 c17 -6 37 -75 37 -126 0 -47 -36 -97 -69 -98 -12 0 -11 3 1 18
27 30 48 80 48 112 0 39 -42 66 -119 76 -50 6 -53 8 -35 21 18 14 98 12 137
-3z m-45 -75 c37 -14 26 -56 -31 -116 -40 -43 -51 -42 -30 3 20 41 11 64 -30
78 -21 8 -32 4 -62 -19 -30 -22 -39 -25 -46 -14 -12 19 -12 19 11 57 l21 34
72 -7 c40 -4 82 -11 95 -16z m-215 -19 c-8 -17 -12 -37 -9 -45 7 -19 -8 -19
-24 0 -9 11 -8 20 6 45 25 41 48 41 27 0z m131 -36 c31 -12 11 -85 -22 -83
-14 0 -13 2 3 8 17 7 15 9 -15 16 -19 4 -39 9 -43 12 -15 9 15 36 60 52 1 1 8
-2 17 -5z m-140 -104 c-14 -36 -16 -81 -4 -95 17 -20 59 -12 117 21 23 13 56
24 74 24 l33 0 -39 -41 c-120 -125 -192 -131 -231 -22 -14 39 -19 145 -8 156
12 12 65 -27 58 -43z m95 -47 c-6 -6 -24 -16 -40 -22 -34 -12 -45 2 -35 43 6
24 6 24 45 8 28 -12 37 -20 30 -29z"/>
<path d="M973 6951 c-34 -32 -142 -112 -240 -178 -242 -164 -318 -226 -462
-377 -30 -31 -58 -53 -62 -49 -3 5 -30 85 -59 178 -77 250 -108 311 -143 276
-8 -8 -7 -24 2 -63 22 -87 125 -400 257 -781 68 -197 124 -359 124 -361 0 -2
-35 -3 -78 -3 -67 1 -84 -3 -137 -30 -70 -36 -108 -73 -129 -125 -22 -52 -20
-146 4 -211 19 -50 19 -57 5 -97 -21 -59 -19 -77 10 -106 13 -13 29 -33 35
-44 15 -27 69 -35 128 -17 43 12 52 12 64 0 8 -7 30 -16 50 -19 50 -9 111 29
191 119 74 84 96 121 96 168 0 19 3 59 7 90 4 40 1 65 -9 85 -8 16 -18 52 -22
79 -15 106 -72 147 -155 111 -12 -5 -23 17 -52 111 -20 65 -40 127 -44 138 -3
11 10 -4 30 -33 39 -55 67 -66 74 -27 4 19 3 19 -10 1 -14 -18 -16 -17 -35 15
-31 50 -86 187 -148 368 l-54 161 42 17 c130 52 380 188 497 271 122 86 250
224 250 269 0 4 -35 -26 -78 -67 -50 -48 -125 -103 -208 -154 -71 -44 -139
-86 -151 -94 -13 -8 -23 -12 -23 -9 0 3 39 32 88 65 204 140 364 278 397 343
9 17 15 32 13 34 -2 2 -31 -23 -65 -54z m-438 -1411 c10 -11 16 -22 14 -24 -2
-3 -14 6 -26 20 -12 13 -18 24 -14 24 4 0 16 -9 26 -20z m-265 -76 c-33 -31
-68 -69 -77 -85 -10 -16 -20 -29 -24 -29 -7 0 -29 79 -29 104 0 27 87 63 158
65 l33 1 -61 -56z m218 -4 c-2 -7 -10 1 -17 16 -12 27 -11 28 4 12 10 -9 16
-21 13 -28z m-64 -17 c22 -45 29 -88 14 -100 -7 -6 -40 -13 -73 -17 -33 -3
-81 -17 -107 -29 -36 -18 -45 -20 -38 -7 13 24 95 132 119 158 30 31 67 29 85
-5z m133 -5 c-3 -8 -6 -5 -6 6 -1 11 2 17 5 13 3 -3 4 -12 1 -19z m-406 -79
c8 -16 5 -29 -17 -67 -27 -45 -28 -46 -35 -22 -13 47 -9 120 8 153 l17 32 8
-38 c4 -21 13 -47 19 -58z m403 -13 c-4 -26 -11 -36 -22 -34 -24 5 -24 22 -1
52 26 33 32 29 23 -18z m-164 -64 c0 -13 -34 -42 -72 -60 -18 -10 -37 -27 -43
-38 -15 -29 -36 -54 -46 -54 -5 0 -9 16 -9 36 0 29 7 44 35 69 39 37 135 70
135 47z m140 -71 c-7 -28 -17 -51 -22 -51 -6 0 -7 7 -4 16 3 9 6 30 6 47 0 24
3 28 10 17 8 -12 10 -10 10 9 0 13 3 22 6 18 3 -3 1 -29 -6 -56z m-82 -32 c-4
-33 -11 -65 -14 -70 -8 -13 -64 -41 -64 -32 0 14 73 163 80 163 4 0 3 -27 -2
-61z m-128 27 c0 -2 -8 -10 -17 -17 -16 -13 -17 -12 -4 4 13 16 21 21 21 13z
m-150 -42 c0 -8 -5 -12 -10 -9 -6 4 -8 11 -5 16 9 14 15 11 15 -7z m167 -76
c-13 -54 -22 -59 -39 -22 -11 24 -10 29 17 50 16 13 30 22 31 21 1 -1 -3 -23
-9 -49z m-53 -24 c9 -24 7 -28 -9 -14 -17 14 -20 30 -6 30 5 0 12 -7 15 -16z
m-69 -48 c18 -13 17 -14 -13 -21 -17 -3 -41 -3 -54 0 l-21 7 24 14 c31 17 41
17 64 0z"/>
<path d="M6154 5836 c-37 -17 -120 -114 -146 -174 -33 -74 -50 -180 -51 -322
-1 -145 7 -179 58 -246 l24 -32 -42 -39 c-23 -21 -84 -63 -136 -93 -125 -73
-197 -151 -262 -285 -84 -174 -119 -350 -119 -609 0 -268 36 -442 108 -515 19
-20 28 -27 20 -16 -28 36 -55 99 -74 170 -16 58 -19 106 -18 280 0 120 5 244
12 290 38 235 111 411 218 525 37 39 70 70 75 70 5 0 -9 -29 -31 -64 -201
-319 -275 -776 -189 -1176 18 -85 20 -50 3 61 -21 137 -21 385 0 506 43 247
135 466 277 661 54 73 67 85 134 118 l74 37 36 -32 c62 -54 140 -41 229 38 22
20 65 48 95 61 l53 25 54 -58 c114 -123 185 -335 219 -657 30 -276 13 -949
-25 -1010 -7 -12 -55 -12 -302 -1 -161 7 -364 15 -450 18 -87 3 -158 9 -158
12 0 5 305 46 535 72 110 12 137 19 132 32 -2 7 -21 19 -43 27 -31 11 -100 14
-341 15 -188 0 -306 -4 -312 -10 -7 -7 77 -10 252 -10 353 0 384 -11 117 -41
-385 -43 -714 -74 -798 -74 -19 0 -23 -5 -20 -22 3 -22 8 -23 148 -30 222 -11
915 -47 1103 -58 111 -7 174 -7 187 0 29 15 45 161 60 555 6 143 15 307 20
365 15 166 12 436 -6 562 -35 252 -112 385 -251 433 l-38 13 3 74 c8 198 -142
467 -303 544 -57 27 -86 29 -131 10z m149 -82 c21 -14 36 -28 34 -31 -3 -2
-24 9 -48 26 -51 37 -39 42 14 5z m-46 -53 c48 -35 123 -143 123 -178 0 -13 4
-22 8 -19 15 9 44 -105 49 -189 5 -79 5 -80 -25 -109 -26 -24 -40 -29 -96 -32
-36 -2 -77 -9 -91 -14 -43 -16 -70 -12 -97 18 -39 42 -49 67 -58 155 -15 150
15 308 70 367 35 38 66 38 117 1z m186 -103 c17 -32 17 -32 0 -8 -10 13 -30
39 -45 56 -16 17 -28 36 -28 40 1 13 52 -49 73 -88z m-427 -25 c-12 -44 -35
-98 -36 -82 0 5 26 99 36 128 2 8 6 12 9 9 2 -2 -2 -27 -9 -55z m-1 -383 c5
-23 4 -24 -7 -5 -7 11 -13 61 -14 110 l-3 90 9 -85 c5 -47 12 -96 15 -110z
m520 75 c-4 -37 -11 -55 -20 -55 -12 0 -12 6 0 41 8 23 15 51 15 62 0 11 3 18
6 14 4 -3 3 -31 -1 -62z m100 -144 c123 -56 189 -248 200 -581 5 -154 3 -158
-15 -40 -38 247 -136 471 -251 574 -33 30 -38 40 -28 52 15 19 45 17 94 -5z
m-540 -11 c3 -5 1 -10 -4 -10 -6 0 -11 5 -11 10 0 6 2 10 4 10 3 0 8 -4 11
-10z m289 -25 c-7 -17 -21 -22 -89 -30 -36 -5 -46 -4 -35 4 8 6 26 11 40 11
14 1 39 7 55 15 17 7 31 14 32 14 1 1 0 -6 -3 -14z m-84 -80 c0 -2 -13 -11
-30 -20 -34 -17 -83 -20 -111 -5 -37 21 -18 30 61 30 44 0 80 -2 80 -5z"/>
<path d="M8375 5236 c-71 -18 -121 -41 -165 -76 -47 -37 -102 -105 -105 -128
-1 -9 -11 -37 -23 -62 -19 -41 -53 -172 -71 -275 -4 -22 -20 -71 -36 -110 -26
-62 -29 -82 -29 -175 0 -92 4 -116 31 -193 37 -104 108 -226 178 -305 111
-125 228 -182 374 -182 42 0 86 -3 98 -6 24 -7 29 -25 38 -149 l6 -80 -20 35
c-44 81 -91 91 -91 19 0 -41 116 -399 244 -750 66 -183 82 -217 129 -284 15
-22 51 -76 79 -120 95 -150 227 -252 340 -263 44 -4 113 6 188 27 27 8 58 53
70 104 5 18 21 66 36 107 62 171 39 467 -60 770 -58 182 -180 452 -285 632
l-51 88 86 82 c133 127 255 299 308 431 54 135 57 226 13 367 -46 144 -92 209
-206 284 -79 53 -220 116 -322 145 -41 12 -98 28 -126 37 -106 31 -227 44
-403 43 -105 0 -195 -6 -225 -13z m313 -5 c8 -5 -17 -10 -65 -14 -43 -4 -111
-16 -150 -27 -40 -11 -84 -20 -98 -20 -59 0 -157 -43 -213 -94 -30 -28 -50
-42 -44 -30 6 12 38 46 71 77 93 86 186 113 391 116 52 0 101 -3 108 -8z
m-393 -114 c-65 -35 -164 -128 -190 -177 -9 -18 -19 -30 -21 -27 -9 8 44 104
78 143 34 38 137 94 173 94 12 0 -4 -13 -40 -33z m610 14 c50 -6 140 -23 202
-37 99 -23 115 -30 145 -62 20 -21 26 -33 16 -29 -35 13 -185 36 -268 42 -234
17 -565 -55 -744 -161 -32 -19 -60 -33 -63 -31 -2 2 14 31 36 63 116 173 363
251 676 215z m465 -132 c32 -17 73 -43 91 -59 l34 -29 -70 34 c-38 19 -75 35
-81 35 -7 0 -19 11 -28 25 -21 32 -16 31 54 -6z m-185 -28 c129 -27 143 -34
165 -83 107 -242 -32 -635 -317 -898 -102 -93 -254 -167 -318 -155 -133 27
-260 100 -365 211 -104 109 -135 158 -171 274 -33 101 -34 112 -34 262 0 152
1 157 24 182 91 96 369 202 593 226 117 12 317 3 423 -19z m233 -80 c55 -29
96 -61 136 -110 34 -40 36 -48 36 -110 0 -159 -105 -338 -306 -521 -39 -36
-93 -81 -120 -100 l-49 -34 28 34 c116 146 180 259 228 400 28 82 33 112 36
220 4 105 1 134 -15 183 -11 31 -17 57 -15 57 2 0 20 -9 41 -19z m-1316 -91
c-9 -27 -19 -50 -23 -50 -8 0 13 69 26 91 13 21 12 6 -3 -41z m-30 -165 c-2
-14 -6 -25 -8 -25 -2 0 -4 11 -4 25 0 14 4 25 9 25 4 0 6 -11 3 -25z m73 -401
c63 -160 169 -309 282 -396 46 -35 53 -44 36 -46 -35 -5 -135 39 -179 80 -95
88 -214 404 -229 606 l-5 77 34 -126 c19 -69 46 -157 61 -195z m-125 121 c7
-38 29 -122 50 -185 21 -63 36 -117 34 -119 -7 -8 -84 166 -99 224 -8 32 -15
95 -14 140 1 87 5 79 29 -60z m1527 -58 c-106 -189 -306 -390 -469 -473 -46
-23 -48 -23 -48 -5 0 13 20 30 68 56 140 77 320 251 422 408 30 46 57 83 59
81 2 -2 -13 -32 -32 -67z m-292 -264 c-56 -51 -139 -110 -203 -142 -74 -38
-57 -16 25 31 43 25 110 71 148 101 39 31 72 56 75 56 3 0 -17 -20 -45 -46z
m-770 -138 c30 -19 75 -43 101 -54 52 -20 69 -41 34 -41 -48 0 -197 105 -255
180 -12 16 -4 11 23 -13 24 -21 67 -53 97 -72z m742 -177 c17 -57 63 -204 102
-328 156 -487 237 -855 229 -1041 -3 -80 -5 -91 -30 -115 -19 -20 -32 -25 -51
-20 -47 11 -144 86 -238 183 -78 80 -106 119 -155 208 -50 95 -59 119 -64 177
l-5 67 48 38 c26 21 59 52 72 69 13 18 43 46 65 64 39 31 40 31 31 7 -5 -14
-26 -58 -47 -98 -47 -95 -65 -147 -54 -154 6 -3 30 8 56 25 25 18 48 29 51 26
8 -8 -16 -64 -48 -112 -35 -51 -64 -122 -54 -132 10 -11 44 35 77 105 33 69
50 88 73 79 29 -11 38 -61 46 -250 4 -104 12 -193 18 -199 6 -6 15 2 26 24
l16 34 -19 -24 -20 -25 -4 190 c-3 163 -6 194 -23 229 -13 25 -28 41 -42 43
-19 3 -21 8 -16 38 5 31 4 34 -19 34 -14 0 -37 -9 -52 -21 -14 -11 -26 -18
-26 -15 0 4 23 51 50 106 49 97 63 160 38 160 -23 0 -71 -36 -155 -115 -46
-42 -83 -74 -83 -71 0 3 39 92 86 198 117 263 152 390 113 414 -12 7 -48 -13
-85 -48 -27 -25 -32 -27 -38 -13 -4 13 -13 15 -32 11 -14 -4 -24 -3 -22 1 42
85 59 126 56 141 -5 27 -52 26 -107 -2 l-49 -24 28 66 c28 67 28 67 109 108
45 22 87 46 93 52 7 7 15 12 18 12 3 0 20 -46 37 -102z m-307 85 c0 -3 -7 -15
-17 -25 -13 -14 -30 -18 -87 -17 l-71 1 35 16 c19 8 55 19 80 22 25 4 48 8 53
9 4 0 7 -2 7 -6z m-201 -200 l-2 -98 -8 65 c-4 36 -11 80 -14 98 -5 25 -2 32
10 32 13 0 15 -16 14 -97z m84 87 l41 0 -31 -30 c-29 -29 -50 -80 -32 -80 5 0
9 -7 9 -15 0 -18 21 -20 38 -3 7 7 12 10 12 8 0 -3 11 -57 24 -120 16 -71 21
-120 16 -130 -12 -20 -24 13 -45 121 -27 147 -55 133 -65 -33 -7 -132 -15
-115 -30 65 -15 186 -14 231 6 223 9 -3 34 -6 57 -6z m127 3 c-1 -5 -11 -28
-24 -52 -17 -33 -24 -40 -29 -27 -7 17 29 86 44 86 5 0 9 -3 9 -7z m522 -328
c151 -360 213 -663 183 -897 -9 -68 -25 -67 -25 0 -1 149 -151 734 -289 1124
-17 47 -31 90 -30 95 0 12 127 -240 161 -322z m-428 173 c-9 -18 -33 -55 -53
-83 l-36 -49 -6 29 c-13 58 -10 64 49 104 31 21 58 38 60 36 2 -2 -4 -18 -14
-37z m169 -100 c-7 -37 -73 -211 -128 -338 -20 -47 -42 -96 -48 -110 -9 -21
-13 -8 -27 95 l-17 120 30 44 c45 66 176 221 187 221 5 0 7 -14 3 -32z m-201
-112 c-15 -24 -28 -38 -30 -30 -4 14 37 74 49 74 5 0 -4 -20 -19 -44z m-116
-146 c24 -69 33 -87 34 -65 1 25 3 27 9 10 9 -23 34 -225 29 -230 -2 -2 -29
54 -61 124 -54 122 -57 132 -56 207 0 44 3 72 6 64 3 -8 21 -58 39 -110z m28
64 c7 -19 8 -59 1 -52 -11 10 -23 68 -15 68 4 0 11 -7 14 -16z m-11 -392 c60
-131 67 -154 67 -207 0 -44 -3 -55 -10 -43 -16 26 -140 368 -140 384 0 35 20
4 83 -134z m172 -341 c61 -104 245 -284 329 -322 43 -20 31 -32 -26 -26 -71 9
-142 46 -215 112 -68 61 -185 225 -166 232 7 2 17 20 23 39 7 20 13 34 15 32
2 -2 20 -32 40 -67z"/>
<path d="M9406 2375 c4 -8 8 -15 10 -15 2 0 4 7 4 15 0 8 -4 15 -10 15 -5 0
-7 -7 -4 -15z"/>
<path d="M11170 4290 c-215 -21 -437 -78 -584 -151 -72 -36 -176 -104 -176
-115 0 -6 9 -1 68 39 98 66 313 137 527 174 140 24 489 24 595 0 101 -22 218
-82 247 -126 22 -32 23 -43 23 -225 0 -242 17 -412 76 -756 72 -426 70 -566
-8 -712 -84 -158 -287 -253 -638 -297 -348 -44 -562 -46 -640 -6 -149 77 -269
375 -324 805 -31 237 -49 585 -57 1060 -1 94 -1 95 -11 40 -14 -83 -3 -792 16
-990 39 -404 103 -656 206 -813 51 -80 103 -126 177 -159 117 -53 592 -28 903
48 264 64 422 199 475 402 18 72 21 236 6 352 -6 41 -26 162 -45 268 -65 354
-77 461 -84 724 -7 229 -9 249 -28 275 -52 71 -153 122 -291 149 -95 18 -314
25 -433 14z"/>
<path d="M3090 4034 c-25 -2 -119 -8 -210 -14 -361 -23 -839 -74 -913 -96 -44
-13 -1 -13 124 1 903 99 1623 77 2049 -61 146 -47 144 -46 89 -97 -25 -23 -77
-64 -114 -92 -38 -27 -93 -79 -123 -115 -256 -312 -429 -423 -678 -437 -304
-17 -610 130 -1064 511 -127 107 -282 216 -307 216 -9 0 10 -19 43 -41 52 -37
104 -79 193 -157 40 -36 6 -15 -118 72 -62 43 -114 76 -117 73 -17 -17 636
-505 826 -617 79 -47 194 -94 298 -122 96 -25 304 -36 382 -19 141 30 301 142
526 366 113 113 164 172 207 241 36 58 72 101 97 119 l40 28 55 -37 c155 -103
182 -162 205 -446 5 -74 20 -247 31 -385 27 -330 17 -423 -57 -499 -93 -96
-229 -116 -801 -116 -304 0 -408 4 -650 25 -487 43 -818 65 -964 65 -140 0
-140 0 -166 28 -90 97 -98 204 -58 837 16 259 20 610 5 445 -5 -47 -13 -168
-20 -270 -6 -102 -20 -295 -32 -430 -28 -345 -17 -479 47 -575 14 -20 25 -38
23 -39 -2 -1 -22 -7 -45 -12 l-42 -11 -7 56 c-16 126 22 1008 55 1292 6 46 12
107 15 134 12 110 -13 -24 -33 -177 -74 -569 -103 -1280 -56 -1345 13 -17 15
-17 43 0 44 25 117 21 222 -13 168 -55 256 -62 900 -70 423 -5 633 -12 760
-24 246 -24 486 -25 630 -3 63 10 141 22 173 27 106 16 147 69 168 214 12 90
6 160 -51 621 -21 171 -41 339 -45 375 -8 75 -65 257 -100 315 -96 161 -234
213 -666 250 -154 13 -621 18 -769 9z m1053 -95 c124 -25 194 -51 249 -94 45
-34 86 -85 69 -85 -5 0 -13 5 -16 10 -27 43 -226 130 -385 168 -127 31 -129
32 -70 26 30 -3 99 -14 153 -25z m27 -263 c0 -3 -21 -31 -47 -63 -49 -59 -174
-181 -158 -153 41 72 205 245 205 216z m484 -1253 c-12 -50 -37 -82 -76 -98
-56 -22 -56 -19 -4 26 26 23 53 54 62 70 18 37 26 37 18 2z m-2172 -89 c387
-26 421 -33 143 -29 -235 4 -394 16 -475 35 -60 14 86 12 332 -6z"/>
<path d="M10925 3830 c-3 -5 -2 -18 4 -28 17 -32 215 -198 424 -356 89 -67
153 -142 137 -161 -5 -6 -53 -36 -107 -66 -174 -97 -276 -220 -318 -383 -8
-32 -36 -96 -62 -143 -41 -73 -48 -81 -55 -63 -14 37 -28 456 -28 821 0 291
-2 348 -15 359 -28 23 -35 0 -36 -123 -1 -74 -4 -108 -8 -87 -14 69 -24 -458
-12 -595 6 -71 15 -191 20 -266 10 -151 33 -229 69 -229 36 0 59 34 212 307
147 262 307 398 485 411 78 5 107 16 99 35 -3 8 -57 42 -121 78 -73 40 -109
65 -97 67 73 10 124 25 124 37 0 27 -60 55 -351 164 -68 26 -110 51 -195 118
-120 94 -160 118 -169 103z m676 -371 l24 -12 -28 -8 c-15 -4 -48 -9 -73 -10
-42 -3 -51 1 -106 46 -123 100 -124 98 23 45 75 -26 147 -54 160 -61z m-16
-169 c3 -5 -1 -10 -9 -10 -9 0 -16 5 -16 10 0 6 4 10 9 10 6 0 13 -4 16 -10z
m-395 -294 c0 -2 -8 -10 -17 -17 -16 -13 -17 -12 -4 4 13 16 21 21 21 13z"/>
<path d="M5600 2548 c-30 -16 -37 -42 -19 -74 10 -20 10 -27 -5 -43 -10 -10
-16 -25 -15 -33 2 -7 -1 -35 -5 -61 -15 -99 19 -175 73 -162 63 16 161 126
182 205 15 58 -3 105 -55 145 -43 33 -117 43 -156 23z m30 -25 c-1 -18 -28
-44 -35 -33 -4 6 -1 17 5 25 13 16 30 20 30 8z m47 -89 c-3 -3 -12 -4 -19 -1
-8 3 -5 6 6 6 11 1 17 -2 13 -5z m29 -53 c-4 -6 -14 -7 -23 -4 -15 6 -14 7 3
13 22 9 29 6 20 -9z m-23 -59 c15 -2 27 -8 27 -12 0 -14 -81 -81 -90 -75 -11
7 -13 48 -4 83 5 17 11 21 23 16 9 -4 28 -9 44 -12z"/>
<path d="M6915 2390 c-137 -10 -177 -19 -182 -40 -3 -10 -14 -20 -24 -23 -33
-9 -80 -129 -86 -218 -6 -86 4 -130 49 -201 24 -38 29 -55 26 -95 l-3 -48 -74
-7 c-79 -8 -97 -17 -88 -42 6 -16 102 -32 137 -23 11 3 22 1 25 -3 3 -5 -6
-115 -20 -246 -14 -131 -25 -254 -23 -274 3 -33 5 -35 37 -32 31 2 33 1 27
-23 -6 -25 -6 -25 56 -25 35 0 97 -6 138 -14 107 -21 346 -46 433 -46 117 0
200 38 177 80 -8 16 -35 18 -227 24 -120 4 -243 9 -274 12 l-56 6 -1 43 c-1
26 -28 112 -63 207 -42 110 -63 183 -67 224 l-4 61 103 6 c78 4 106 9 115 21
9 13 32 16 110 17 54 0 115 5 134 12 39 13 51 40 23 52 -10 4 -118 9 -241 10
-123 2 -228 7 -233 12 -5 5 -10 105 -11 223 l-3 215 -22 -1 c-19 0 -23 5 -23
28 0 27 2 28 47 28 42 0 45 -1 28 -14 -16 -11 -7 -11 55 1 77 15 276 11 293
-6 5 -5 -74 -11 -175 -15 -171 -7 -198 -10 -187 -20 8 -8 305 -36 364 -35 54
2 50 3 -40 13 l-100 11 91 7 c142 12 187 40 98 62 l-39 10 70 11 c55 8 71 14
73 29 2 10 -2 22 -10 27 -15 10 -289 9 -433 -1z m-154 -93 c-1 -4 -1 -34 -1
-68 0 -33 -4 -58 -8 -55 -27 17 -51 -66 -53 -184 l-1 -55 -19 40 c-46 93 12
350 74 332 5 -1 8 -6 8 -10z m136 -1084 l6 -43 -62 0 c-55 0 -62 2 -57 18 10
33 26 147 26 188 0 22 3 44 7 47 9 10 73 -158 80 -210z"/>
<path d="M6557 2280 c-48 -45 -47 -52 3 -15 18 14 36 23 38 20 2 -2 -5 -20
-17 -39 -15 -23 -27 -33 -37 -29 -38 14 -302 -294 -453 -529 -24 -38 -44 -68
-45 -68 0 0 0 151 2 335 l3 335 -23 9 c-13 5 -28 5 -34 0 -8 -6 -15 -83 -20
-212 -5 -111 -10 -184 -11 -162 -8 118 -24 239 -34 254 -7 12 -9 -4 -4 -59 6
-88 31 -836 31 -930 -1 -60 1 -65 22 -68 12 -2 22 -10 22 -17 0 -20 21 -30 31
-14 5 8 9 90 9 183 l0 168 29 34 29 33 164 -158 c175 -169 204 -192 214 -166
5 12 16 8 58 -22 l51 -37 -55 61 c-30 34 -77 87 -105 119 -56 64 -241 232
-267 243 -13 5 1 29 79 131 199 262 407 599 389 629 -12 18 -25 13 -69 -29z
m-319 -498 c-23 -38 -88 -121 -71 -92 16 29 86 130 90 130 2 0 -6 -17 -19 -38z"/>
<path d="M7278 2233 c7 -3 16 -2 19 1 4 3 -2 6 -13 5 -11 0 -14 -3 -6 -6z"/>
<path d="M5236 2108 c-15 -57 -35 -139 -45 -183 -64 -290 -124 -567 -143 -670
-20 -102 -26 -120 -43 -123 -34 -7 -40 -21 -12 -31 30 -12 29 -18 -18 -110
-43 -86 -23 -143 24 -67 26 42 95 87 181 119 53 20 92 25 210 30 154 7 242 28
248 59 5 24 -64 31 -173 18 -152 -19 -295 -24 -295 -10 0 32 65 308 95 400 76
238 125 447 125 534 0 81 -45 100 -87 37 -25 -36 -29 -27 -13 29 11 39 5 70
-14 70 -9 0 -23 -38 -40 -102z m77 -157 c-10 -49 -20 -80 -27 -78 -6 2 -10 15
-9 28 1 28 43 142 49 136 2 -2 -3 -41 -13 -86z"/>
<path d="M5710 2145 c-10 -12 -13 -110 -14 -416 -1 -379 0 -401 17 -414 14
-10 21 -32 25 -87 5 -55 11 -73 22 -73 13 0 16 30 21 185 12 362 10 611 -6
664 -8 27 -15 65 -15 83 0 36 -15 73 -29 73 -5 0 -14 -7 -21 -15z"/>
<path d="M10021 1593 c-39 -19 -85 -75 -137 -163 -21 -36 -44 -71 -51 -78 -7
-7 -13 -18 -13 -23 0 -6 -36 -106 -79 -222 -91 -243 -171 -481 -171 -511 -1
-15 -8 -7 -25 25 -44 86 -150 111 -270 66 -69 -26 -99 -36 -143 -47 -47 -12
-107 -60 -118 -93 -4 -12 -23 -56 -42 -97 -46 -96 -54 -171 -23 -230 11 -22
21 -48 21 -56 0 -24 63 -82 96 -89 16 -4 65 -20 108 -37 107 -40 197 -47 258
-20 26 11 53 31 61 44 19 28 38 115 42 185 4 61 28 141 61 198 25 44 71 184
170 520 84 283 147 432 230 542 48 64 90 50 121 -41 30 -87 22 -185 -31 -376
-72 -259 -82 -382 -36 -457 26 -44 72 -65 139 -66 58 0 197 29 206 43 3 5 -23
2 -57 -7 -37 -8 -95 -13 -140 -11 -64 3 -81 7 -102 27 -71 67 -63 162 40 501
34 112 38 137 38 240 1 110 0 118 -29 169 -38 69 -74 88 -124 64z m-562 -959
c13 -9 29 -32 37 -50 15 -36 19 -144 6 -144 -10 0 -32 60 -32 87 0 31 -47 83
-94 104 l-41 18 50 0 c32 1 59 -5 74 -15z m-104 -54 l40 -18 -42 -1 c-35 -1
-113 30 -113 44 0 9 79 -9 115 -25z m-215 -50 c-6 -10 -13 -47 -16 -82 -6 -57
-25 -98 -45 -98 -4 0 -13 23 -19 51 l-12 51 48 49 c53 54 60 58 44 29z m94 2
c2 -4 -11 -20 -30 -35 -19 -16 -34 -26 -34 -24 0 2 5 18 11 36 10 29 41 43 53
23z m172 -14 c14 -10 25 -48 15 -48 -4 0 -23 16 -42 36 -32 34 -33 36 -9 29
14 -4 30 -12 36 -17z m-120 -39 c24 -26 25 -30 7 -20 -17 9 -24 8 -30 -2 -4
-7 -27 -20 -50 -29 -57 -22 -58 -3 -3 46 22 20 41 36 43 36 2 0 16 -14 33 -31z
m62 -84 c9 -44 -72 -176 -98 -160 -13 8 -13 58 1 128 9 45 16 57 33 59 31 6
61 -7 64 -27z m-114 -47 c-18 -82 -17 -108 1 -128 14 -15 14 -19 -2 -31 -15
-12 -16 -12 -10 3 3 9 1 18 -4 20 -12 4 -39 108 -39 149 0 22 24 41 61 48 3 1
0 -27 -7 -61z m-184 -64 c0 -37 27 -74 75 -104 19 -12 35 -25 35 -30 0 -20
-38 -14 -76 11 -70 47 -83 80 -67 174 l6 40 13 -30 c7 -16 13 -44 14 -61z
m330 72 c0 -8 -9 -24 -21 -37 -11 -13 -18 -19 -15 -13 3 6 10 23 15 38 11 28
21 34 21 12z m-234 -111 c-7 -24 -36 56 -29 82 6 26 7 25 20 -22 7 -27 11 -54
9 -60z m284 21 c9 -30 8 -41 -10 -75 -19 -37 -24 -41 -59 -41 -74 0 -76 7 -16
73 30 33 55 64 55 69 0 21 20 4 30 -26z m-112 -147 c43 -3 54 -12 26 -23 -29
-11 -51 -6 -70 16 -10 12 -14 19 -8 15 6 -3 29 -7 52 -8z m132 -2 c0 -2 -10
-12 -21 -23 -22 -19 -22 -19 -8 4 12 19 29 30 29 19z"/>
</g>
</svg>
