<?xml version="1.0" standalone="no"?>
<!DOCTYPE svg PUBLIC "-//W3C//DTD SVG 20010904//EN"
 "http://www.w3.org/TR/2001/REC-SVG-20010904/DTD/svg10.dtd">
<svg version="1.0" xmlns="http://www.w3.org/2000/svg"
 width="1280.000000pt" height="1186.000000pt" viewBox="0 0 1280.000000 1186.000000"
 preserveAspectRatio="xMidYMid meet">
<metadata>
Created by potrace 1.15, written by Peter Selinger 2001-2017
</metadata>
<g transform="translate(0.000000,1186.000000) scale(0.100000,-0.100000)"
fill="#1976d2" stroke="none">
<path d="M6635 11854 c-179 -19 -314 -78 -377 -166 -19 -27 -61 -158 -54 -166
2 -1 18 22 35 53 64 113 161 183 306 220 103 27 320 25 490 -4 190 -33 513
-117 552 -144 38 -25 74 -88 97 -167 66 -222 73 -733 20 -1354 -21 -252 -111
-1070 -124 -1133 -9 -42 -19 -59 -51 -87 -69 -58 -128 -71 -334 -71 -99 0
-205 4 -236 8 l-57 8 5 40 c5 31 0 47 -21 80 l-28 41 21 19 c27 25 27 53 0 80
-45 45 -175 83 -203 60 -8 -7 -25 -11 -38 -9 -15 2 -23 -2 -23 -12 0 -8 -7
-28 -16 -45 -25 -47 -29 -89 -15 -144 7 -28 9 -51 5 -51 -5 0 -79 18 -166 40
-100 25 -163 46 -171 57 -17 24 -30 72 -47 183 -43 279 -56 616 -64 1570 l-6
845 -23 -355 c-39 -607 -43 -682 -49 -1180 -10 -817 27 -1113 145 -1174 91
-47 420 -137 649 -177 156 -28 480 -33 573 -10 142 35 252 120 284 219 14 43
37 253 87 772 70 744 77 1267 19 1605 -37 215 -104 364 -189 421 -44 28 -208
65 -466 104 -134 20 -438 34 -530 24z"/>
<path d="M6375 11564 c-108 -28 -120 -68 -90 -284 21 -147 45 -401 45 -479 0
-35 -5 -90 -10 -120 -20 -107 -90 -742 -96 -869 -13 -269 41 -418 184 -509
141 -90 349 -132 769 -153 161 -8 228 -8 243 0 144 77 301 952 275 1535 -17
397 -75 625 -193 756 -79 88 -88 91 -397 105 -339 16 -704 25 -730 18z m705
-123 c203 -14 273 -22 298 -35 64 -33 116 -145 149 -326 26 -137 26 -733 0
-970 -35 -326 -85 -620 -128 -767 l-22 -73 -48 0 c-91 0 -404 21 -541 36 -299
32 -417 90 -465 229 -15 42 -18 84 -17 275 1 124 6 333 12 465 8 207 15 268
47 440 l37 199 -17 141 c-9 77 -25 199 -34 270 -10 72 -16 134 -13 139 7 12
410 0 742 -23z"/>
<path d="M5525 10256 c-23 -7 -50 -18 -60 -24 -23 -12 -23 -12 75 -36 84 -19
130 -39 168 -71 75 -63 45 -144 -130 -352 -43 -51 -72 -93 -66 -93 34 0 183
87 242 141 162 149 165 341 7 422 -45 22 -67 27 -125 26 -39 0 -89 -6 -111
-13z"/>
<path d="M2145 10159 c-142 -19 -382 -91 -528 -157 -136 -62 -268 -163 -347
-264 -40 -52 -79 -154 -92 -243 -25 -174 19 -353 189 -775 199 -492 237 -619
252 -838 l7 -107 13 75 c18 96 9 284 -18 403 -24 102 -71 244 -148 442 -133
340 -177 487 -188 630 -17 208 74 376 270 496 214 132 609 231 797 200 133
-22 235 -86 293 -185 115 -196 72 -562 -109 -926 -57 -115 -105 -192 -282
-450 -150 -217 -187 -345 -161 -548 l8 -63 -27 7 c-24 6 -26 5 -20 -12 21 -54
19 -73 -12 -102 -34 -32 -80 -48 -169 -58 -62 -7 -63 -6 -63 18 0 86 188 897
266 1145 l37 121 46 7 c124 18 223 72 258 138 21 41 21 139 -1 192 -49 117
-119 113 -225 -14 -28 -34 -67 -90 -88 -126 l-38 -65 -106 0 -106 0 -32 65
c-41 83 -90 115 -174 115 -63 0 -147 -28 -191 -63 -34 -27 -38 -67 -10 -98 28
-31 122 -76 221 -104 48 -14 91 -29 94 -33 16 -17 31 -127 36 -257 8 -190 -16
-451 -73 -815 -30 -195 -31 -200 -48 -200 -20 0 -76 49 -76 66 0 23 -25 27
-59 9 -25 -12 -31 -22 -30 -48 0 -17 -3 -57 -7 -88 -3 -30 -1 -86 5 -124 16
-109 82 -314 116 -364 81 -121 192 -128 394 -28 129 65 128 61 121 398 -1 78
2 134 9 147 15 29 14 76 -4 119 -18 42 -20 200 -4 289 17 98 78 206 220 394
215 284 284 397 363 598 129 329 132 666 7 861 -65 101 -168 175 -287 206 -75
19 -213 26 -299 14z m155 -934 c0 -15 -11 -36 -26 -50 -26 -24 -84 -50 -84
-37 0 23 77 112 97 112 7 0 13 -11 13 -25z m-656 -79 c45 -19 58 -39 19 -30
-52 13 -74 24 -68 34 8 13 9 13 49 -4z m349 -182 c3 -4 0 -19 -8 -34 -18 -34
-65 -209 -94 -345 -41 -196 -74 -456 -86 -670 -3 -60 -8 -137 -11 -171 l-5
-61 -40 7 c-22 4 -42 10 -45 12 -2 3 11 70 30 149 98 410 157 835 143 1037
l-6 82 58 0 c32 0 60 -3 64 -6z m-404 -1289 c57 -29 197 -58 311 -64 96 -5
112 -8 94 -18 -29 -17 -371 -21 -401 -5 -12 7 -27 29 -33 50 -16 59 -15 60 29
37z m455 -157 c-55 -98 -106 -121 -284 -126 l-135 -4 -25 49 -25 48 65 -22
c116 -40 266 -24 360 37 51 34 54 35 44 18z m4 -211 c-6 -20 -18 -39 -27 -41
-9 -3 -82 -19 -164 -37 -119 -25 -150 -29 -162 -19 -26 22 -17 27 63 33 85 6
210 45 263 81 19 13 35 23 36 22 1 -1 -3 -19 -9 -39z"/>
<path d="M8845 10163 c-153 -21 -314 -86 -385 -156 -150 -147 -88 -326 173
-503 49 -32 97 -65 108 -73 17 -12 19 -11 19 8 0 48 -46 117 -137 205 -114
110 -127 140 -94 209 28 59 131 155 251 236 103 70 119 82 105 80 -6 -1 -23
-4 -40 -6z"/>
<path d="M5445 10005 c-5 -2 -136 -9 -290 -15 -868 -34 -1008 -88 -1755 -673
-169 -133 -219 -175 -170 -145 101 61 644 360 765 420 323 162 547 223 1245
338 191 31 223 39 250 60 l25 20 -30 -1 c-16 0 -34 -2 -40 -4z"/>
<path d="M8760 9774 c0 -12 247 -62 645 -129 324 -54 461 -83 587 -126 102
-34 282 -124 368 -183 l80 -55 -20 39 c-32 63 -115 156 -183 204 -228 163
-523 232 -1032 242 -132 2 -286 6 -342 8 -57 2 -103 2 -103 0z"/>
<path d="M11620 9333 c-136 -21 -326 -82 -675 -216 -404 -155 -437 -171 -571
-273 -45 -34 -113 -81 -153 -104 -39 -23 -71 -44 -71 -46 0 -6 30 7 365 156
409 183 472 208 674 274 366 120 506 139 633 84 92 -40 144 -129 175 -302 20
-115 26 -865 7 -931 -10 -33 -12 0 -13 192 -1 323 -29 511 -93 637 -31 61
-103 132 -160 156 -182 78 -424 33 -1163 -221 -319 -110 -338 -127 -274 -253
11 -23 31 -54 45 -71 24 -29 24 -28 -8 63 -31 92 -31 93 -12 112 18 18 420
134 784 225 401 100 555 92 635 -34 64 -102 92 -305 96 -681 l1 -175 -69 -27
c-98 -38 -918 -275 -1034 -298 -147 -30 -214 -24 -267 24 -67 60 -82 150 -82
483 0 147 -2 264 -4 262 -2 -2 -15 -71 -27 -154 -18 -117 -23 -194 -24 -350 0
-228 9 -276 62 -332 l33 -36 77 7 c370 31 1038 165 1256 252 100 40 197 97
197 116 0 6 3 9 6 5 12 -12 -52 -110 -100 -153 -100 -90 -255 -147 -681 -249
-132 -31 -377 -90 -544 -131 -167 -41 -305 -73 -306 -72 -1 2 -21 134 -44 293
-79 546 -170 1099 -179 1091 -9 -10 34 -735 58 -976 26 -258 62 -445 94 -495
15 -25 69 -195 63 -201 -2 -3 -26 27 -52 66 -27 38 -50 68 -53 66 -2 -2 1 -13
7 -24 6 -11 38 -94 70 -184 184 -505 274 -708 351 -789 33 -35 42 -39 87 -39
194 0 885 287 1383 575 248 143 422 276 450 346 13 29 12 33 -9 50 -13 11 -32
19 -42 19 -15 0 -19 7 -19 35 0 50 -31 134 -76 202 -67 103 -288 303 -413 373
-12 6 -7 20 27 72 142 218 173 540 101 1058 -33 235 -63 332 -131 414 -74 90
-230 134 -388 109z m486 -1765 c133 -134 190 -205 237 -290 76 -137 67 -241
-27 -313 -38 -29 -73 -43 -706 -292 -643 -253 -773 -292 -877 -265 -94 26
-127 70 -242 329 -48 109 -114 249 -145 311 -31 61 -54 112 -51 112 3 0 97 18
208 39 111 22 319 63 462 91 143 28 319 65 392 84 73 18 129 28 126 22 -4 -6
-19 -30 -34 -52 l-28 -42 37 -6 c71 -11 80 -8 122 45 22 28 40 55 40 60 0 5
-15 9 -33 9 -58 0 -50 13 26 41 41 14 98 39 128 53 44 23 50 24 36 8 -18 -19
-17 -20 27 -45 l44 -25 47 48 c43 44 46 49 29 59 -51 29 -52 28 6 80 30 28 57
50 60 51 3 0 55 -51 116 -112z m418 -542 c9 -15 2 -26 -43 -67 -30 -27 -56
-47 -59 -45 -2 3 10 22 26 43 17 21 34 51 38 66 7 30 21 31 38 3z m-335 -250
c-11 -11 -398 -200 -512 -250 -455 -201 -831 -316 -946 -291 -18 4 -40 19 -53
38 -20 29 -21 30 -2 22 34 -15 166 -18 239 -5 170 29 704 235 1205 464 51 23
79 32 69 22z"/>
<path d="M11846 7371 l-35 -50 51 -10 c28 -6 52 -10 53 -9 1 2 14 22 29 45
l26 43 -36 15 c-20 8 -40 15 -44 15 -5 0 -24 -22 -44 -49z"/>
<path d="M11150 7235 c-24 -24 -42 -46 -39 -48 2 -2 21 -14 42 -27 l39 -23 44
44 c24 24 44 47 44 51 0 6 -72 48 -83 48 -1 0 -23 -20 -47 -45z"/>
<path d="M12010 7246 c-14 -8 -40 -35 -59 -61 -32 -44 -32 -47 -15 -61 51 -38
104 -21 154 50 16 25 30 47 30 50 0 8 -57 36 -72 36 -7 -1 -24 -7 -38 -14z"/>
<path d="M11484 7220 c-30 -12 -116 -112 -105 -123 5 -5 36 -11 69 -14 l60 -6
56 53 c31 29 56 57 56 61 0 5 -23 15 -52 24 -58 17 -56 17 -84 5z"/>
<path d="M10929 7182 c-14 -9 -40 -33 -57 -53 l-31 -36 45 -21 45 -22 30 21
c29 20 59 66 59 90 0 15 -30 38 -50 39 -8 0 -27 -8 -41 -18z"/>
<path d="M12225 7114 c-8 -20 -15 -42 -15 -48 0 -10 60 -51 64 -44 6 10 35 92
33 94 -1 1 -17 9 -34 18 l-33 16 -15 -36z"/>
<path d="M10542 7078 c-68 -57 -68 -57 14 -81 l50 -15 56 47 c31 25 58 50 60
56 2 5 -17 15 -41 22 -24 7 -51 15 -60 17 -9 3 -41 -16 -79 -46z"/>
<path d="M11055 7000 c-30 -27 -51 -51 -47 -53 4 -3 31 -12 60 -22 l53 -17 52
48 c29 27 53 51 55 54 2 6 -95 40 -111 40 -4 0 -31 -22 -62 -50z"/>
<path d="M11613 7010 c-39 -22 -74 -44 -77 -49 -8 -12 49 -59 79 -67 48 -12
67 -1 106 64 l39 63 -35 15 c-19 8 -36 14 -37 14 -2 0 -35 -18 -75 -40z"/>
<path d="M11900 6952 c-17 -29 -30 -55 -27 -58 2 -3 26 -7 53 -10 l50 -6 32
52 c18 29 30 55 27 58 -3 3 -27 8 -54 12 l-49 6 -32 -54z"/>
<path d="M10692 6939 c-28 -11 -132 -115 -132 -131 0 -14 149 -4 200 13 39 13
100 55 100 69 0 5 -17 21 -37 35 -39 26 -88 32 -131 14z"/>
<path d="M11250 6886 c-14 -8 -40 -34 -58 -59 l-32 -45 26 -21 c15 -12 33 -21
41 -21 30 0 73 32 104 77 l32 46 -23 19 c-26 21 -55 22 -90 4z"/>
<path d="M11362 6715 c-55 -40 -68 -55 -55 -59 55 -15 134 -26 145 -20 32 18
138 99 138 104 0 6 -115 30 -141 30 -8 -1 -47 -25 -87 -55z"/>
<path d="M10773 6694 c-29 -25 -53 -49 -53 -53 0 -4 24 -15 54 -25 l55 -19 55
48 c31 26 56 51 56 54 0 6 -97 42 -111 41 -2 0 -28 -21 -56 -46z"/>
<path d="M10891 6596 c-22 -23 -41 -47 -41 -52 0 -6 18 -19 40 -29 l41 -18 44
43 c25 24 45 47 45 50 0 3 -20 16 -44 27 l-43 21 -42 -42z"/>
<path d="M7968 8730 c53 -98 142 -304 175 -405 59 -178 83 -333 118 -745 11
-135 24 -270 28 -300 l7 -55 13 95 c75 565 67 787 -38 1030 -59 135 -163 281
-286 400 l-57 55 40 -75z"/>
<path d="M2875 8314 c-11 -3 -40 -10 -64 -16 l-43 -11 112 -23 c432 -87 1077
-430 1408 -748 39 -38 72 -63 72 -55 0 30 -50 117 -108 191 -190 238 -641 519
-993 617 -148 41 -311 60 -384 45z"/>
<path d="M4423 7800 c2 -8 28 -73 57 -143 64 -155 63 -165 -25 -212 -33 -18
-121 -66 -195 -106 l-135 -74 75 -3 c182 -7 392 65 436 150 45 86 10 173 -124
308 -52 52 -92 88 -89 80z"/>
<path d="M7910 7507 c0 -18 132 -267 181 -341 166 -252 332 -304 456 -142 40
52 79 154 94 245 11 66 6 141 -9 141 -4 0 -25 -41 -46 -90 -44 -104 -101 -197
-141 -228 -36 -29 -86 -28 -133 2 -41 27 -142 129 -277 281 -120 136 -125 141
-125 132z"/>
<path d="M5833 7465 c-124 -35 -240 -113 -375 -253 -74 -77 -189 -219 -217
-269 -7 -14 -16 -11 -59 21 -120 87 -242 121 -409 114 -88 -4 -123 -11 -192
-37 -215 -79 -341 -217 -341 -371 0 -68 29 -150 63 -178 13 -11 12 -5 -4 37
-28 75 -26 181 5 248 34 73 103 138 189 179 216 102 485 73 664 -73 69 -56 72
-55 179 71 190 222 313 333 431 389 59 28 79 32 148 32 93 0 144 -21 220 -87
57 -50 133 -156 146 -203 18 -65 120 -91 127 -32 2 19 15 35 41 52 157 98 427
150 581 111 131 -33 231 -134 271 -271 43 -147 51 -171 72 -202 49 -73 102
-81 304 -47 175 29 266 29 343 -2 123 -48 229 -154 303 -303 39 -79 42 -90 42
-170 0 -77 -4 -94 -35 -161 -24 -53 -35 -89 -35 -125 0 -88 43 -128 300 -280
429 -253 607 -421 607 -575 0 -64 -20 -99 -123 -207 -49 -51 -89 -99 -89 -107
0 -7 81 -92 181 -187 99 -95 195 -193 212 -218 42 -62 48 -132 15 -181 -65
-96 -261 -168 -661 -242 -148 -27 -195 -32 -332 -32 -219 0 -329 23 -743 155
-140 44 -256 79 -258 76 -3 -3 12 -11 33 -17 21 -7 130 -52 243 -100 330 -142
413 -160 750 -167 474 -11 825 74 998 240 67 64 85 106 80 191 -5 107 -39 168
-168 296 -58 58 -128 121 -156 140 l-51 35 57 70 c70 87 95 130 116 202 46
157 -41 320 -260 485 -43 32 -156 104 -250 160 -210 124 -304 182 -334 208
-22 18 -22 20 -8 82 43 190 42 359 -4 493 -95 276 -395 407 -839 365 -79 -7
-137 -8 -142 -3 -5 5 -23 70 -39 143 -49 217 -112 303 -253 346 -159 48 -590
3 -777 -82 l-55 -25 -15 22 c-68 103 -177 197 -270 233 -62 24 -163 29 -227
11z"/>
<path d="M1069 6983 c-101 -105 -138 -157 -189 -266 -64 -136 -82 -219 -87
-404 -4 -122 -1 -192 12 -280 18 -124 88 -416 130 -543 l25 -75 -5 160 c-3 88
-13 257 -21 375 -22 288 -15 479 21 615 31 118 85 256 156 396 27 56 48 103
46 105 -2 2 -42 -35 -88 -83z"/>
<path d="M10107 6404 c3 -50 0 -150 -6 -224 -33 -376 -152 -691 -352 -937 -33
-39 -59 -74 -59 -77 0 -16 51 -3 91 22 164 105 358 445 420 737 16 76 16 274
0 340 -16 70 -58 175 -80 204 -19 24 -19 24 -14 -65z"/>
<path d="M12494 6459 c16 -85 35 -288 41 -429 6 -142 -8 -544 -21 -615 -17
-88 68 106 109 250 41 143 50 214 45 363 -6 167 -33 261 -107 375 -59 90 -77
105 -67 56z"/>
<path d="M4043 6420 c-214 -56 -405 -235 -495 -465 -26 -66 -32 -98 -35 -185
-4 -90 -2 -113 17 -162 57 -152 228 -248 442 -248 49 0 88 -3 88 -6 0 -3 -32
-40 -71 -82 -173 -185 -262 -338 -290 -496 -28 -161 60 -306 236 -391 85 -41
205 -73 301 -82 l71 -6 13 -51 c32 -126 113 -272 207 -375 191 -210 455 -276
717 -180 45 17 88 32 96 35 10 3 29 -13 54 -46 97 -128 255 -228 451 -286 80
-24 107 -27 250 -28 186 -1 237 10 332 73 73 49 117 109 145 199 l22 68 65
-49 c128 -97 324 -173 507 -198 247 -33 446 55 502 220 24 69 3 303 -30 336
-7 7 -8 3 -4 -10 16 -54 36 -245 30 -288 -5 -42 -12 -53 -48 -79 -53 -39 -151
-86 -218 -104 -71 -18 -229 -18 -303 1 -144 38 -288 119 -436 247 l-82 71 -32
-16 c-30 -14 -33 -20 -44 -90 -23 -139 -99 -228 -233 -268 -60 -19 -86 -21
-177 -16 -127 7 -223 32 -346 92 -106 51 -221 150 -255 219 l-21 44 -27 -25
c-15 -14 -40 -32 -56 -40 -28 -14 -30 -14 -47 8 -10 13 -21 36 -24 52 -4 15
-9 27 -11 27 -2 0 -29 -14 -59 -31 -176 -99 -468 3 -688 241 -64 70 -137 192
-137 231 0 15 -10 19 -57 21 l-58 3 -3 58 -3 57 38 0 c21 1 57 5 81 9 40 8 42
7 42 -16 0 -17 -5 -23 -17 -21 -11 2 -19 -7 -25 -31 -13 -49 -4 -65 34 -57
104 21 168 58 168 97 0 29 -65 95 -123 123 -73 37 -127 35 -161 -4 -14 -17
-28 -47 -32 -67 l-7 -36 -111 6 c-128 6 -195 24 -255 68 -151 109 -93 358 184
789 25 38 45 72 45 75 0 3 -19 5 -42 5 -40 0 -41 0 -23 20 16 18 19 18 48 4
24 -13 31 -14 39 -2 47 70 35 78 -112 78 -318 0 -483 100 -498 300 -14 199
157 444 393 563 100 50 191 71 307 72 115 0 117 8 10 30 -89 19 -152 18 -239
-5z m2552 -2667 l-6 -35 -30 28 c-16 15 -29 31 -29 34 0 4 15 13 33 22 38 18
43 10 32 -49z"/>
<path d="M4599 6217 c-102 -54 -135 -168 -83 -288 34 -81 35 -101 1 -279 -66
-356 -51 -608 40 -680 40 -31 87 -35 153 -12 108 37 274 161 286 216 l7 29
-62 -43 c-155 -105 -269 -133 -317 -77 -57 67 -57 195 1 496 l38 194 -23 141
c-29 174 -30 228 -5 256 27 30 87 26 164 -10 35 -17 66 -29 68 -26 9 9 -63 80
-94 92 -50 22 -123 17 -174 -9z"/>
<path d="M12194 5643 c5 -199 42 -319 122 -399 101 -100 241 -83 354 43 46 52
120 177 120 202 0 6 -39 -17 -87 -52 -185 -135 -241 -150 -303 -85 -30 30 -84
144 -145 300 -28 71 -53 128 -58 128 -4 0 -6 -62 -3 -137z"/>
<path d="M481 5614 c8 -10 56 -68 104 -129 275 -340 393 -445 499 -445 26 0
60 7 75 15 45 23 102 94 153 191 48 92 141 315 134 322 -2 2 -52 -61 -110
-140 -154 -209 -191 -248 -231 -248 -39 0 -66 18 -250 164 -131 104 -341 262
-375 281 -13 7 -12 5 1 -11z"/>
<path d="M9553 5355 c7 -252 26 -345 100 -468 35 -58 97 -97 154 -97 60 0 151
51 237 133 42 40 76 75 76 78 0 3 -51 -11 -112 -32 -184 -63 -261 -51 -301 49
-8 21 -45 148 -82 282 -37 135 -69 247 -72 250 -3 3 -3 -85 0 -195z"/>
<path d="M6789 5476 c-42 -15 -106 -61 -120 -88 -13 -24 -7 -23 49 7 59 32
108 41 127 25 24 -20 18 -85 -21 -220 -19 -69 -38 -157 -41 -196 -8 -94 9
-127 86 -177 154 -99 182 -176 83 -230 -55 -30 -107 -43 -247 -63 -128 -18
-541 -28 -712 -17 -73 4 -129 5 -125 2 12 -12 163 -56 262 -77 508 -109 1040
10 1040 233 0 78 -86 177 -214 245 -36 19 -66 40 -66 47 0 6 9 49 20 95 51
218 48 348 -10 401 -33 30 -57 33 -111 13z"/>
<path d="M12025 4894 c-101 -11 -275 -38 -440 -69 -99 -19 -202 -39 -230 -44
-95 -17 404 -13 639 6 240 18 334 13 422 -26 l45 -20 -193 -193 c-229 -229
-266 -253 -388 -253 -63 0 -85 5 -140 31 -118 56 -249 175 -393 356 -34 42
-62 76 -63 75 -2 -1 6 -29 17 -61 111 -327 329 -536 561 -536 183 0 331 105
498 351 108 160 138 193 157 177 18 -14 42 -61 54 -102 19 -64 51 -407 53
-551 1 -172 -11 -213 -74 -250 -34 -19 -48 -20 -470 -17 -470 3 -613 12 -694
42 -169 64 -203 245 -151 794 8 83 13 151 11 153 -8 9 -84 -312 -107 -457 -18
-110 -16 -283 4 -351 35 -119 118 -200 245 -240 136 -42 518 -72 932 -73 223
-1 238 0 292 22 69 28 109 73 133 149 15 46 17 81 12 222 -5 169 -44 481 -72
576 -39 133 -145 228 -300 269 -59 16 -281 28 -360 20z"/>
<path d="M590 4864 c-30 -8 -84 -34 -120 -58 -36 -23 -85 -48 -110 -55 -51
-15 -115 -73 -126 -115 -16 -66 56 -194 151 -268 l46 -36 -63 -34 c-261 -138
-405 -527 -357 -966 11 -105 41 -260 63 -332 13 -41 14 -29 9 140 -17 573 97
958 313 1057 48 22 66 25 137 21 97 -4 144 -24 203 -85 136 -143 205 -505 189
-988 -8 -232 -2 -215 -79 -215 -35 0 -123 10 -197 21 -175 28 -390 31 -470 6
-52 -16 -156 -74 -148 -81 2 -2 38 5 79 16 108 28 316 20 545 -21 188 -34 289
-39 322 -16 21 15 22 14 33 -42 16 -81 61 -257 67 -263 3 -3 1 18 -3 45 -14
95 -8 482 9 611 46 333 136 523 283 595 58 29 78 33 140 33 189 -2 305 -143
363 -445 11 -57 20 -144 20 -194 0 -49 5 -142 12 -205 9 -82 9 -162 3 -280
l-9 -165 -51 -3 c-28 -2 -113 7 -190 18 -176 27 -360 36 -438 21 -65 -12 -147
-47 -185 -78 l-25 -20 70 18 c119 31 292 26 545 -17 315 -53 361 -45 378 64 4
29 11 56 15 60 4 4 85 7 179 6 149 0 196 -4 347 -32 97 -18 204 -32 239 -32
55 0 66 3 90 28 24 24 29 41 44 152 71 518 13 941 -160 1157 l-34 42 50 48
c42 41 51 57 61 108 21 102 -1 258 -50 360 -45 93 -159 155 -258 140 -54 -7
-137 -43 -184 -78 -18 -14 -57 -32 -86 -42 -31 -10 -70 -33 -93 -54 -35 -34
-39 -43 -39 -86 0 -70 33 -129 117 -212 l74 -72 -49 -25 c-107 -54 -206 -164
-274 -303 l-41 -86 -33 64 c-17 35 -48 82 -67 104 l-34 39 31 21 c89 60 112
176 74 375 -13 72 -63 164 -107 201 -48 40 -130 63 -193 55 -59 -8 -142 -43
-183 -78 -17 -15 -49 -31 -71 -37 -50 -13 -100 -46 -128 -84 -49 -67 -8 -176
106 -282 l68 -63 -45 -22 c-105 -51 -201 -153 -270 -286 l-34 -67 -4 34 c-43
307 -84 435 -183 569 -24 33 -40 60 -35 60 21 0 75 57 93 97 38 87 15 327 -41
417 -67 107 -182 153 -301 120z m75 -93 c39 -17 82 -32 96 -35 25 -5 28 -12
44 -96 20 -112 10 -177 -36 -233 -72 -87 -236 -80 -344 14 -116 102 -91 270
49 337 105 51 101 51 191 13z m1875 -286 c28 -14 67 -29 87 -33 33 -7 40 -13
51 -47 24 -70 27 -179 8 -229 -19 -49 -72 -102 -112 -112 -45 -11 -157 2 -200
24 -46 23 -99 74 -120 115 -9 16 -15 49 -15 75 -1 95 38 152 135 198 84 41
102 42 166 9z m-907 -97 c23 -11 62 -26 87 -33 l45 -11 18 -70 c47 -179 -16
-303 -157 -312 -120 -8 -221 44 -269 138 -34 66 -32 115 10 193 25 44 37 55
98 83 83 39 111 41 168 12z m902 -482 c143 -66 230 -271 265 -625 11 -115 13
-432 3 -558 l-6 -83 -62 0 c-34 0 -122 10 -196 22 -174 28 -412 31 -478 5 -24
-9 -44 -17 -46 -17 -1 0 2 21 6 48 16 88 22 471 9 572 -6 52 -14 116 -17 142
-4 33 2 72 21 137 51 181 134 303 238 355 72 36 189 37 263 2z"/>
<path d="M10421 3958 c-93 -13 -102 -21 -44 -43 86 -32 295 -134 331 -161 61
-47 77 -124 47 -237 -13 -52 -57 -147 -87 -189 -36 -50 57 -22 106 32 68 76
108 188 109 309 2 223 -170 331 -462 289z"/>
<path d="M5343 3940 c-27 -11 -45 -44 -41 -73 3 -21 5 -20 23 8 19 28 23 30
78 27 51 -3 57 -5 57 -25 0 -12 4 -29 9 -36 8 -12 11 -9 16 11 9 36 -10 67
-50 84 -39 16 -60 17 -92 4z"/>
<path d="M4115 3718 c-150 -15 -154 -19 -55 -58 47 -18 126 -39 175 -46 119
-18 127 -20 159 -45 36 -28 62 -80 116 -233 33 -95 51 -133 69 -145 l24 -15
-7 130 c-11 208 -35 294 -99 362 -57 59 -157 73 -382 50z"/>
<path d="M10390 3630 c-8 -5 -175 -46 -370 -91 -434 -99 -503 -119 -606 -169
-124 -60 -190 -124 -466 -451 -91 -107 -206 -240 -254 -295 -124 -139 -128
-146 -49 -84 164 127 340 276 555 469 251 225 370 289 915 486 299 108 305
111 305 129 0 18 -8 19 -30 6z"/>
<path d="M4345 3479 c-31 -60 -103 -145 -166 -198 -202 -169 -515 -270 -949
-307 -83 -7 -84 -7 -53 -20 71 -30 214 -46 348 -41 207 8 400 65 579 171 85
49 215 174 246 235 25 50 38 149 22 176 -9 17 -12 15 -27 -16z"/>
<path d="M11441 2989 c-112 -193 -427 -532 -666 -718 -564 -437 -1235 -742
-1856 -843 -186 -30 -508 -31 -616 -1 -40 11 -73 16 -73 13 0 -12 133 -69 200
-85 36 -9 124 -19 196 -22 539 -24 1342 241 1947 643 178 118 312 227 453 368
179 179 287 323 373 500 39 81 84 196 79 202 -2 1 -18 -25 -37 -57z"/>
<path d="M6565 2676 c-117 -30 -193 -82 -238 -165 l-28 -51 64 49 c101 76 212
111 352 111 227 0 494 -113 664 -281 104 -103 133 -190 133 -389 0 -163 -44
-280 -119 -316 -23 -12 -44 -32 -54 -53 -18 -39 -41 -53 -126 -80 -179 -57
-414 -26 -633 84 -272 137 -440 373 -416 585 9 80 42 170 87 240 43 67 33 67
-42 1 -83 -73 -139 -188 -139 -286 0 -59 26 -151 61 -219 132 -256 478 -499
792 -557 34 -6 70 -14 81 -18 11 -4 77 -119 173 -301 324 -618 537 -926 695
-1004 61 -31 93 -32 131 -7 38 24 53 48 83 127 38 101 44 238 15 335 -75 249
-335 598 -644 863 -31 28 -57 53 -57 58 0 4 26 34 58 67 32 32 69 82 82 109
14 30 33 53 45 56 15 5 17 8 7 15 -11 7 -11 18 2 62 52 183 46 438 -12 557
-84 174 -357 342 -651 402 -114 23 -286 26 -366 6z m837 -1364 c48 -100 140
-240 323 -492 164 -226 240 -345 255 -399 21 -78 9 -175 -25 -197 -36 -23 -84
3 -182 99 -145 141 -307 354 -583 768 l-157 236 91 5 c62 4 113 13 161 31 39
14 72 25 75 25 3 1 22 -34 42 -76z"/>
<path d="M6762 2472 c-30 -11 -67 -29 -83 -41 -25 -19 -38 -21 -87 -16 -108
12 -201 -25 -241 -96 -30 -52 -28 -146 4 -246 66 -210 288 -452 478 -522 71
-26 164 -28 233 -4 131 44 274 288 274 467 0 185 -113 356 -290 440 -84 39
-206 47 -288 18z m148 -62 c126 -24 231 -96 279 -190 38 -76 47 -149 31 -249
-29 -189 -133 -282 -300 -268 -183 15 -405 168 -482 332 -26 56 -30 75 -26
125 7 96 74 169 198 215 25 10 59 23 75 31 35 16 150 18 225 4z"/>
<path d="M2860 2079 c783 -564 1068 -730 1440 -838 212 -61 321 -75 575 -75
304 0 517 32 855 131 85 25 177 49 204 54 27 5 53 14 57 21 4 7 10 10 13 7 8
-8 25 -171 33 -304 l6 -120 28 61 c142 311 47 617 -205 663 -59 11 -181 0
-199 -18 -4 -4 27 -22 70 -40 133 -56 228 -130 254 -198 12 -33 7 -37 -39 -36
-20 0 -113 -12 -207 -27 -374 -63 -616 -81 -893 -68 -356 16 -633 94 -1027
288 -171 84 -264 136 -902 503 -150 86 -276 157 -279 157 -3 0 94 -72 216
-161z"/>
<path d="M8163 1643 c-125 -123 -213 -242 -254 -343 -31 -78 -32 -182 -2 -231
68 -108 248 -85 397 52 31 28 55 54 53 56 -3 2 -57 -10 -122 -27 -114 -29
-177 -36 -209 -24 -37 14 -18 69 125 349 77 153 138 279 136 282 -3 2 -59 -49
-124 -114z"/>
</g>
</svg>
